<?xml version="1.0" encoding="UTF-8"?>
<svg width="56px" height="48px" viewBox="0 0 56 48" version="1.1" xmlns="http://www.w3.org/2000/svg" xmlns:xlink="http://www.w3.org/1999/xlink">
    <!-- Generator: sketchtool 62 (101010) - https://sketch.com -->
    <title>A80AF52A-2AB4-4027-9BAA-260DEE082BC7@2x</title>
    <desc>Created with sketchtool.</desc>
    <g id="web" stroke="none" stroke-width="1" fill="none" fill-rule="evenodd">
        <g id="Desktop-HD-Copy-5" transform="translate(-696.000000, -21.000000)">
            <g id="dd-pink-copy" transform="translate(675.000000, 0.000000)">
                <path d="M44.7993505,89.5999985 L44.7993505,89.5999985 C20.0577259,89.5999985 0,69.542563 0,44.7999992 C0,20.0574354 20.0577259,0 44.7993505,0 C69.5422726,0 89.5999985,20.0574354 89.5999985,44.7999992 C89.5999985,69.542563 69.5422726,89.5999985 44.7993505,89.5999985 Z" id="Stroke-1"></path>
                <path d="M31.8525725,53.1999991 L42.7701648,46.6951437 L42.7701648,22.2868157 L44.3183269,22.2868157 C53.107683,22.2868157 55.2307285,26.8691679 55.6511849,39.0192856 L66.4999989,32.5568951 C63.1233704,24.7922467 56.0716413,20.9999996 46.5685474,20.9999996 L25.8999996,20.9999996 L25.8999996,21.4761216 L31.8525725,21.4761216 L31.8525725,53.1999991 Z" id="Fill-3" fill="#F9BCBF"></path>
                <path d="M61.4750642,39.1856234 C61.6661337,40.498661 61.7708294,41.8622499 61.7826076,43.2802787 L61.7826076,47.1999487 C61.7577424,49.9737892 61.393925,52.5596826 60.6911555,54.9550365 C59.975299,57.3970531 58.8707599,59.5331696 57.3814642,61.3517202 C55.8790817,63.1871212 53.9840904,64.6349623 51.7148122,65.6887625 C49.4402992,66.745155 46.7757949,67.2791841 43.7160645,67.3038117 L36.9173907,67.3038117 L36.9173907,53.7106968 L34.2999994,55.2583443 L34.2999994,68.5999988 L44.221221,68.5999988 C47.4353775,68.5792598 50.2830991,68.0426383 52.7748556,66.9953191 C55.2600686,65.9505923 57.3500555,64.5027512 59.0539773,62.6479074 C60.7670598,60.7852864 62.0770642,58.5480673 62.9866076,55.9271769 C64.1186293,52.6698585 64.3659728,52.3108147 64.3999989,47.0962537 L64.3999989,43.4837801 C64.3882206,41.4695052 64.1788293,39.5835529 63.818938,37.7999994 L61.4750642,39.1856234 Z" id="Fill-5" fill="#F9BCBF"></path>
                <polygon id="Fill-7" stroke="#F9BCBF" fill="#F9BCBF" points="22.7387452 59.499999 22.3999996 58.9483599 22.6788133 58.7808059 75.2612531 27.2999995 75.5999987 27.8503498 75.321185 28.0179037"></polygon>
            </g>
        </g>
    </g>
</svg>